<svg xmlns="http://www.w3.org/2000/svg" viewBox="0 0 776.65 207.1"><defs><style>.cls-1{fill:#fff;}</style></defs><g id="Layer_2" data-name="Layer 2"><g id="Layer_3" data-name="Layer 3"><path class="cls-1" d="M103.55,0A103.55,103.55,0,1,0,207.1,103.55,103.55,103.55,0,0,0,103.55,0Zm49.56,168.29L137.83,153l-34.28-34.28v17.8H82.08V92.15A10.07,10.07,0,0,1,92.15,82.08h44.38v21.47h-17.8L153,137.83l15.28,15.28A82,82,0,0,1,153.11,168.29Zm10.25-58.9c.17-1.83.26-3.69.26-5.57a59.8,59.8,0,1,0-59.8,59.8c1.6,0,3.18-.08,4.75-.2l18.27,18.27a81.77,81.77,0,1,1,54.62-54.19Z"/><path class="cls-1" d="M370.46,65.73q17,0,27.16,9.78t10.12,26.15v51.45H387V106.38q0-10.45-5.48-16.19t-14.93-5.73q-10.12,0-15.77,6.41a21.74,21.74,0,0,0-5.65,14.84v47.4H324.41V106.38q0-10.27-5.15-16.1t-15.43-5.82q-10.12,0-15.69,7t-5.57,17.29v44.36H261.66V67.92h16.7l2,11.81h1.35q8.94-14,28.85-14,20.91,0,29.52,14.17h.67a29.68,29.68,0,0,1,11.64-10.12A38.46,38.46,0,0,1,370.46,65.73Z"/><path class="cls-1" d="M439.28,53.25A12.67,12.67,0,0,1,426.63,40.6a12.82,12.82,0,0,1,12.65-12.82,12.6,12.6,0,0,1,9.11,3.79,12.19,12.19,0,0,1,3.88,9,12.05,12.05,0,0,1-3.79,8.94A12.69,12.69,0,0,1,439.28,53.25Zm-10.46,99.86V68.26h20.92v84.85Z"/><path class="cls-1" d="M472,153.11V68.26h16.7l2,11.47h1.35q8.94-14,27.83-14,16.88,0,26.23,9.7t9.37,26.23v51.45H534.76V106.22q0-10.47-5.48-16.2t-15.1-5.73q-10.12,0-15.69,7t-5.57,17.29v44.53Z"/><path class="cls-1" d="M615.56,155.64q-19.57,0-31.88-12.73t-12.32-31.46q0-19.58,12.32-32.73t31.88-13.16q18.21,0,27.32,13.83h1.35v-45h20.25v91.42c.11,2.82.19,4.73.25,5.74a5.5,5.5,0,0,0,1.26,3,4.2,4.2,0,0,0,3.55,1.52,7.78,7.78,0,0,0,3.2-.67h1.69l.17,17.88a25.33,25.33,0,0,1-10.46,2.36,23.66,23.66,0,0,1-8.1-1.18,9.42,9.42,0,0,1-4.81-3.63A17.64,17.64,0,0,1,649,146a43.78,43.78,0,0,1-1.18-6.08h-1.35a30.6,30.6,0,0,1-12.32,11.39A38.91,38.91,0,0,1,615.56,155.64Zm2.36-18.22a25.25,25.25,0,0,0,19-8,26.68,26.68,0,0,0-.09-37.53A25.62,25.62,0,0,0,617.75,84a25.29,25.29,0,0,0-18.64,7.51q-7.5,7.5-7.51,19.31,0,11.64,7.6,19.15A25.59,25.59,0,0,0,617.92,137.42Z"/><path class="cls-1" d="M763.24,142.91q-13.41,12.9-33,12.9t-32.89-12.9Q684.05,130,684,110.6q0-19.23,13.5-32.13t32.72-12.91q19.41,0,32.9,12.91t13.49,32.13Q776.65,130,763.24,142.91Zm-51.36-13.42a25,25,0,0,0,18.38,7.43,25.28,25.28,0,0,0,18.48-7.43q7.5-7.41,7.5-18.89a25.68,25.68,0,0,0-7.42-18.81,26.49,26.49,0,0,0-36.94,0,25.68,25.68,0,0,0-7.42,18.81Q704.46,122.08,711.88,129.49Z"/></g></g></svg>